<svg xmlns="http://www.w3.org/2000/svg" viewBox="0 0 1000 1000"><path d="M10 469.8c0-7.5 6-13.5 13.5-13.5h886.6c7.5 0 13.5 6 13.5 13.5v58.5c0 7.5-6 13.5-13.5 13.5H23.5c-7.5 0-13.5-6-13.5-13.5v-58.5z"/><path d="M624.1 759.2c-5.3-5.3-5.3-13.8 0-19.1l301.5-290.3c5.3-5.3 13.8-5.3 19.1 0l41.4 41.4c5.3 5.3 5.3 13.8 0 19.1L684.5 800.6c-5.3 5.3-13.8 5.3-19.1 0l-41.3-41.4z"/><path d="M986 508.8c5.3-5.3 5.3-13.8 0-19.1L684.5 199.4c-5.3-5.3-13.8-5.3-19.1 0L624 240.8c-5.3 5.3-5.3 13.8 0 19.1l301.5 290.3c5.3 5.3 13.8 5.3 19.1 0l41.4-41.4z"/></svg>