<svg xmlns="http://www.w3.org/2000/svg" viewBox="0 0 1000 1000"><g fill="#444"><path d="M958 188.2c0 30.8-25 55.8-55.8 55.8H97.8C67 244 42 219 42 188.2c0-30.8 25-55.8 55.8-55.8h804.4c30.8 0 55.8 24.9 55.8 55.8z"/><path d="M594.5 10h-189c-52.8 0-95.7 42.8-95.7 95.7v71.6c0 52.8 380.3 52.8 380.3 0v-71.6c.1-52.9-42.8-95.7-95.6-95.7zm3.4 122.4H402.1v-46h195.8v46zM134.3 308.9h111.6V559H134.3V308.9zm621.1 0H867V559H755.4V308.9z"/><path d="M755.4 308.9v569.5H643.8V308.9h-88.9v569.5H443.3V308.9h-85.7v569.5H245.9V308.9h-113v583.8c0 53.8 44.8 97.3 100.1 97.3h534c55.3 0 100.1-43.6 100.1-97.3V308.9H755.4z"/></g></svg>