<svg xmlns="http://www.w3.org/2000/svg" viewBox="0 0 1000 1000"><path d="M261.05 52.03c-2.97 2.33-35.19 41.34-71.66 86.5-36.46 45.16-67.2 83.32-68.69 84.8-2.12 2.33-10.18-2.12-42.61-23.53-22.05-14.42-42.4-26.71-45.15-27.56-13.14-3.39-26.08 10.81-22.26 24.59 1.7 5.72 7.42 10.39 37.95 30.74 53.21 35.4 69.32 44.94 74.62 44.94 2.97 0 8.48-3.39 13.36-8.06 13.36-12.93 152.64-186.98 153.91-192.49 1.91-7.42-2.97-17.38-9.96-20.99-8.06-4.24-13.15-4.02-19.51 1.06zm149.88 89.04c-2.54.85-6.57 4.45-9.33 7.84-5.94 7.42-4.66 18.23 3.18 25.86l5.3 5.51h568.16l5.72-5.94c8.06-8.06 8.06-20.35 0-28.41l-5.72-5.93-281.53-.42c-154.77-.2-283.45.43-285.78 1.49zM125.79 386.99c-53.63 13.57-90.73 60-90.95 113.63 0 14.2 7 40.91 14.2 54.48 13.78 25.65 45.15 49.4 74.83 56.82 38.58 9.54 82.89-4.03 110.66-33.71 55.97-59.78 32.44-157.94-44.73-186.56-15.46-5.72-49.8-8.26-64.01-4.66zm59.15 46.64c54.48 29.04 53.42 105.36-1.7 133.56-36.46 18.66-83.31 1.7-100.91-36.68-8.06-17.38-8.69-43.25-1.27-59.57 13.78-30.53 39.43-46.43 72.5-45.16 15.69.64 19.72 1.49 31.38 7.85zm225.99 46.64c-6.78 2.76-13.57 12.51-13.57 19.29 0 3.81 2.33 8.69 6.15 12.93l6.15 7h568.58l5.72-5.93c8.06-8.06 8.06-20.35 0-28.41l-5.72-5.94-281.54-.43c-154.76-.21-283.44.43-285.77 1.49zM125.79 724.06c-53.63 13.57-90.73 60-90.95 113.63 0 14.2 7 40.92 14.2 54.48 13.78 25.65 45.15 49.39 74.83 56.81 38.58 9.54 82.89-4.03 110.66-33.71 55.97-59.78 32.65-157.94-44.73-186.56-15.46-5.71-49.8-8.25-64.01-4.65zm59.15 46.64c54.48 29.04 53.42 105.36-1.7 133.56-36.46 18.66-83.31 1.7-100.91-36.68-8.06-17.38-8.69-43.25-1.27-59.57 13.78-30.53 39.43-46.43 72.5-45.15 15.69.64 19.72 1.48 31.38 7.84zm225.99 46.64c-6.78 2.76-13.57 12.51-13.57 19.29 0 3.82 2.33 8.69 6.15 12.93l6.15 7h568.58l5.72-5.94c8.06-8.06 8.06-20.35 0-28.41l-5.72-5.94-281.53-.42c-154.77-.2-283.45.43-285.78 1.49z" fill="#fff"/></svg>