<svg xmlns="http://www.w3.org/2000/svg" viewBox="0 0 1000 1000"><path d="M57.47 36.41L31.06 62.82v874.35l26.41 26.41L83.88 990l416.69-.38 416.88-.57 25.65-26.03 25.84-25.84V103.03L925.5 59.19c-24.12-24.12-45.94-44.98-48.81-46.51-4.02-2.11-14.93-2.68-50.34-2.68-48.43 0-53.21.77-58 9.95-1.72 3.25-2.49 37.71-2.68 136.47l-.57 132.08-6.32 12.82c-7.08 14.55-15.7 22.97-31.01 30.05l-10.53 4.98H322.95l-10.72-4.98c-13.21-6.32-24.31-17.04-30.63-29.67l-4.59-9.38-.96-133.98c-.77-103.93-1.53-134.94-3.44-138.2C266.87 10.19 265.72 10 171.36 10H83.88L57.47 36.41zm793.76 346.45c17.8 8.23 31.2 25.07 35.22 44.02 1.53 7.08 2.1 84.98 2.1 257.06 0 273.9.77 256.48-12.44 262.8-5.74 2.68-43.26 3.06-376.11 3.06-332.86 0-370.37-.38-376.11-3.06-13.21-6.32-12.44 11.1-12.44-262.8 0-251.12.19-259.16 7.08-272.75 4.02-7.85 17.61-22.01 24.31-25.46 15.7-8.23 5.55-8.04 360.04-7.66l338.79.38 9.56 4.41z"/><path d="M443.54 466.5c-38.28 10.34-71.78 29.67-100.87 58.38-14.36 14.17-14.93 15.12-14.93 23.54 0 7.46 1.15 10.14 7.66 17.61 5.93 6.89 7.66 10.34 7.66 15.89 0 14.74-10.72 21.63-27.75 17.8-18.57-4.21-25.07 1.91-32.92 31.39-4.59 17.42-5.17 22.2-5.17 52.64 0 30.24.57 35.22 5.17 52.45 5.74 21.63 8.61 26.6 16.84 30.82 4.98 2.68 7.27 2.87 14.93.77 16.65-4.21 28.9 3.06 28.9 17.23 0 6.12-1.53 9.38-7.66 16.46-6.51 7.66-7.66 10.14-7.66 17.61 0 8.61.57 9.38 16.08 24.5 18.18 17.8 41.54 34.07 62.78 44.02 16.84 7.66 45.17 16.27 54.17 16.27s17.23-7.47 19.91-18.18c2.49-9.76 7.27-15.5 14.55-17.42 11.48-2.87 20.67 3.83 24.12 17.42 1.34 5.55 4.21 10.34 8.04 13.59 5.36 4.59 7.08 4.98 16.65 4.02 11.67-1.34 39.24-10.34 54.55-17.99 18.18-9.19 41.54-26.03 57.61-41.73 15.5-15.12 16.08-15.89 16.08-24.5 0-7.46-1.15-9.95-7.66-17.61-5.93-6.89-7.66-10.34-7.66-15.89 0-14.74 10.72-21.63 27.75-17.8 18.57 4.21 25.07-1.91 32.92-31.39 4.59-17.42 5.17-22.2 5.17-52.64 0-30.24-.58-35.22-5.17-52.45-5.74-21.63-8.61-26.6-17.04-31.01-5.17-2.68-7.27-2.87-16.08-.77-16.65 4.02-27.56-2.87-27.56-17.61 0-5.55 1.72-9 7.66-15.89 6.51-7.66 7.66-10.14 7.66-17.61 0-8.61-.57-9.38-16.08-24.5-18.19-17.8-41.73-34.26-62.59-43.83-18.76-8.61-44.22-16.46-53.4-16.46-10.14 0-17.99 6.89-20.86 18.18-3.45 13.6-12.64 20.29-24.13 17.42-7.27-1.91-12.06-7.66-14.55-17.42-4.2-16.65-15.3-21.24-37.12-15.31zm75.22 159.06c14.55 4.79 26.8 15.12 34.65 29.48 6.32 11.48 6.89 13.59 6.89 28.71 0 14.93-.57 17.23-6.51 28.33-7.27 13.4-13.21 19.14-27.75 26.8-8.42 4.4-12.06 5.17-26.03 5.17-15.12 0-17.23-.57-28.71-6.89-26.41-14.55-38.66-44.6-29.48-71.97 11.09-32.55 44.78-49.96 76.94-39.63zM531.58 12.3c-2.1 1.15-5.36 3.83-7.08 6.12-3.06 3.64-3.45 13.78-3.45 134.75v130.92l5.55 5.55 5.55 5.55h48.62c53.79 0 54.93-.19 60.1-12.63 4.02-9.57 4.02-250.55 0-260.12-4.98-11.68-8.8-12.44-59.91-12.44-29.47.19-46.89.96-49.38 2.3z"/></svg>