<svg xmlns="http://www.w3.org/2000/svg" viewBox="0 0 1000 1000"><g fill="#fff"><path d="M419.55 15.06c-.38 1.34-5.18 33.19-10.55 70.59-5.37 37.41-10.17 69.44-10.74 71.17-.58 1.92-7.67 5.56-18.61 9.4-9.78 3.26-26.67 10.36-37.6 15.54l-19.76 9.4-6.14-4.22c-3.26-2.49-29.93-21.87-59.27-43.16-29.35-21.48-54.1-38.94-54.67-38.94-.77 0-24.36 23.02-52.75 51.41l-51.22 51.22 38.37 59.47c21.1 32.8 38.37 60.43 38.37 61.58 0 1.15-1.73 5.95-3.64 10.55-2.11 4.6-5.56 18.03-7.87 29.73-2.3 11.7-4.99 22.44-5.75 23.79-.77 1.34-29.73 6.14-74.62 12.08L10 414.64v73.28c0 68.1.19 73.28 3.45 74.24 1.73.38 33.57 7.87 70.4 16.5 37.02 8.63 68.1 16.69 69.25 18.03 1.15 1.15 4.99 10.74 8.63 21.29 3.64 10.36 10.93 27.81 16.31 38.56l9.59 19.38-47.77 56.21-47.76 56.19 51.6 51.6c28.2 28.2 52.37 51.03 53.52 50.64.96-.38 27.82-18.8 59.47-40.86 31.46-22.06 58.32-40.67 59.47-41.43 1.34-.77 12.08 3.45 23.98 9.02 12.08 5.76 29.92 13.24 39.71 16.69 13.81 4.8 17.84 6.91 18.61 10.17.38 2.11 3.64 35.29 6.91 73.47l6.33 69.63h146.75l2.11-10.17c1.15-5.37 8.25-38.37 15.92-73.28l14-63.3 20.14-7.1c10.94-4.03 28.97-11.7 39.9-16.88 19.56-9.59 19.95-9.59 23.98-6.14 19.37 17.26 106.85 90.54 108 90.54.96 0 24.55-23.02 52.75-51.41l51.22-51.22-42.97-61.38-42.97-61.38 4.6-7.67c5.95-10.36 34.72-66.56 35.68-69.83.58-1.73 23.21-6.52 74.62-15.73 40.67-7.29 74.04-13.24 74.43-13.24.19 0 .19-33 0-73.28l-.58-73.09-73.66-14c-40.48-7.87-73.85-14.39-74.04-14.58-.96-1.73-18.22-29.54-28.58-46.42l-12.28-19.57 45.66-62.34 45.65-62.15L841 152.22c-28.2-28.2-51.99-51.22-52.75-51.22-.96 0-27.81 20.33-60.04 45.27l-58.32 45.08-11.13-6.33c-5.95-3.45-23.79-10.55-39.71-15.92l-28.58-9.59-10.93-67.14c-6.14-37.02-11.51-70.02-12.28-73.47l-1.15-6.14h-72.9c-56.59 0-73.08.57-73.66 2.3zm131.4 254.55c115.48 26.29 193.94 127.76 189.34 244.78-2.49 64.26-27.05 119.12-73.47 164.01-46.04 44.5-101.86 67.33-165.74 67.52-66.57.19-125.07-23.79-171.69-70.4-35.3-35.3-57.55-77.69-67.14-127.76-3.84-20.53-4.03-62.34-.19-84.21 17.84-101.09 98.41-179.74 201.61-196.82 20.91-3.44 65.8-2.1 87.28 2.88z"/><path d="M482.86 318.92c-28.58 4.03-46.81 9.4-68.1 19.95-41.43 20.72-76.16 60.81-91.31 104.93-7.87 23.21-10.36 38.17-10.36 62.92 0 70.21 39.52 133.51 102.63 164.97 32.04 16.11 45.08 18.99 84.4 18.99 30.12 0 33.96-.38 49.88-5.18 33.19-10.17 55.05-23.02 79.42-46.23 16.31-15.73 27.62-31.07 37.21-50.07 60.23-120.85-23.79-264.34-158.45-270.28-10.75-.39-22.06-.39-25.32 0zm33.76 96.68c15.92 3.07 33.38 12.08 45.66 23.98 46.61 44.5 34.72 119.12-23.6 147.71-13.62 6.71-16.88 7.67-33.19 8.25-22.44.96-38.17-2.68-53.9-13.04-19.76-12.66-33.57-31.08-39.71-52.56-4.41-15.35-3.26-42.01 2.69-57.35 15.72-40.69 59.46-65.05 102.05-56.99z"/></g></svg>