<svg xmlns="http://www.w3.org/2000/svg" viewBox="0 0 1000 1000"><path d="M424.15 13.64c-9.19 4.21-13.21 8.43-17.23 18-2.49 6.13-2.87 40.4-2.87 298.73 0 255.64.38 292.98 2.87 301.6 3.83 13.02 18.38 28.92 31.98 35.04 9.96 4.41 11.49 4.6 60.89 4.6s50.94-.19 60.89-4.6c13.6-6.13 28.15-22.02 31.98-35.04 2.49-8.62 2.87-45.96 2.87-301.98 0-279.38-.19-292.6-3.64-299.87-4.21-9.19-8.43-13.21-18-17.23-5.74-2.3-18-2.87-74.49-2.87-61.47-.02-68.36.36-75.25 3.62zm56.49 744.32c-44.43 8.62-80.23 40.98-93.06 84.07-5.17 17.04-4.79 47.68.58 65.11 21.64 68.75 98.81 102.45 162.38 71.04 33.89-16.85 55.92-46.15 63.38-84.26 5.94-30.25-.19-58.79-18.77-86.55-14.17-21.26-33.32-35.62-60.89-45.19-10.35-3.64-43.09-6.13-53.62-4.22z" fill="#fff"/></svg>